<svg xmlns="http://www.w3.org/2000/svg" width="16.3" height="15" viewBox="0 0 510 470"><path d="M38 180 L30 182 L22 185 L12 192 L5 202 L2 210 L0 218 L0 432 L2 440 L5 448 L10 455 L15 460 L22 465 L30 468 L42 470 L378 470 L390 468 L398 465 L403 462 L181 462 L174 461 L161 457 L155 454 L144 446 L134 436 L126 425 L121 412 L118 399 L118 180Z" fill="#5B6EF5" fill-opacity="0.3"/><path d="M188 100 L179 101 L170 104 L158 111 L151 118 L146 125 L142 134 L140 143 L140 392 L142 406 L148 419 L154 426 L165 434 L174 438 L188 440 L402 440 L416 438 L429 432 L332 432 L318 431 L304 426 L291 420 L280 410 L270 399 L264 386 L261 379 L259 372 L258 358 L258 100Z" fill="#5B6EF5" fill-opacity="0.58"/><path d="M463 0 L332 0 L322 1 L317 2 L307 6 L299 12 L292 19 L289 23 L284 32 L282 37 L281 42 L280 52 L280 363 L281 368 L284 378 L286 383 L292 391 L299 398 L303 401 L312 406 L317 408 L327 410 L332 410 L458 410 L468 409 L478 406 L483 404 L491 398 L498 391 L501 387 L506 378 L508 373 L510 363 L510 358 L510 47 L508 37 L504 27 L498 19 L491 12 L483 6 L473 2Z" fill="#5B6EF5"/></svg>
